Coordinates
version=1
nRows=7
nColumns=40
inDegrees=yes

Units are S.I. units (second, meters, Newtons, ...)
Angles are in degrees.

endheader
time	pelvis_tilt	pelvis_list	pelvis_rotation	pelvis_tx	pelvis_ty	pelvis_tz	hip_flexion_r	hip_adduction_r	hip_rotation_r	knee_angle_r	knee_angle_r_beta	ankle_angle_r	subtalar_angle_r	mtp_angle_r	hip_flexion_l	hip_adduction_l	hip_rotation_l	knee_angle_l	knee_angle_l_beta	ankle_angle_l	subtalar_angle_l	mtp_angle_l	lumbar_extension	lumbar_bending	lumbar_rotation	arm_flex_r	arm_add_r	arm_rot_r	elbow_flex_r	pro_sup_r	wrist_flex_r	wrist_dev_r	arm_flex_l	arm_add_l	arm_rot_l	elbow_flex_l	pro_sup_l	wrist_flex_l	wrist_dev_l
      7.04000000	     -5.34146959	     -5.05254433	     -2.29971160	      1.00901990	      0.93207897	      0.43802508	     31.43331561	     -6.88385407	     -5.16277668	     69.41371476	     69.41371476	      0.54429641	    -13.92604234	     -1.12342912	     18.52173390	     -6.53721321	     -9.27869497	     22.46487834	     22.46487834	     11.49358693	     -9.51337613	      0.51682636	    -11.28684453	      5.66441424	      3.22425737	     12.50670734	    -13.34420864	     -3.37734581	     88.11668177	     44.85180949	      0.00000000	      0.00000000	      7.88721888	    -13.21291183	      1.52481562	     50.52162499	     45.84938914	      0.00000000	      0.00000000
      7.05150000	     -5.23788073	     -5.07485943	     -2.57481408	      1.00745692	      0.93301711	      0.43758634	     32.46623685	     -6.87564802	     -5.00952385	     68.46982516	     68.46982516	      0.51313908	    -13.64663089	     -1.51311198	     17.55508216	     -6.49451137	     -9.51156671	     21.89407047	     21.89407047	     11.70495805	     -9.49731722	      0.39581396	    -11.43532774	      5.75541795	      3.44611837	     10.86493332	    -13.41990411	     -3.75699502	     84.02508175	     45.00080407	      0.00000000	      0.00000000	      9.66497592	    -13.51647017	      1.78906314	     51.72265027	     45.89852094	      0.00000000	      0.00000000
      7.06300000	     -5.11906135	     -5.12963676	     -2.85174600	      1.00596508	      0.93392718	      0.43724687	     33.37266224	     -6.79894365	     -4.88933773	     67.36200955	     67.36200955	      0.45237962	    -13.38265177	     -1.73761552	     16.56329569	     -6.51419993	     -9.87445821	     21.31429456	     21.31429456	     11.95532499	     -9.27673047	      0.16345100	    -11.57687763	      5.87501311	      3.46370985	      9.61537919	    -13.33153971	     -4.00640495	     79.40516531	     45.16176141	      0.00000000	      0.00000000	     11.09720626	    -14.03939625	      2.25954412	     53.46987017	     45.93714380	      0.00000000	      0.00000000
      7.07450000	     -4.98945745	     -5.17118288	     -3.09933550	      1.00439529	      0.93473581	      0.43698296	     34.16937382	     -6.70376183	     -4.77980677	     66.08770304	     66.08770304	      0.45877222	    -13.10000638	     -1.73190904	     15.59903505	     -6.50986875	    -10.17468623	     20.76346602	     20.76346602	     12.15276293	     -9.06881749	     -0.04571752	    -11.80192149	      5.93021611	      3.43714096	      8.68637089	    -13.28745862	     -4.12912544	     74.41983207	     45.32833465	      0.00000000	      0.00000000	     12.49192217	    -14.66393825	      2.64949283	     55.40297455	     45.99260401	      0.00000000	      0.00000000
      7.08600000	     -4.85626626	     -5.24630267	     -3.36092713	      1.00286810	      0.93546634	      0.43684369	     34.83934843	     -6.53816670	     -4.70333986	     64.58878340	     64.58878340	      0.48483207	    -12.76746418	     -1.56383078	     14.62813978	     -6.53551592	    -10.46349318	     20.20736904	     20.20736904	     12.41644585	     -8.90301914	     -0.10615828	    -12.09371077	      6.04723361	      3.95473619	      7.03749320	    -13.79617661	     -4.07521775	     71.07153626	     45.43032490	      0.00000000	      0.00000000	     14.23671395	    -14.76172568	      2.57985911	     57.04100981	     46.05091714	      0.00000000	      0.00000000
      7.09750000	     -4.78739627	     -5.29311642	     -3.59740448	      1.00132100	      0.93595942	      0.43685407	     35.46073744	     -6.36601296	     -4.65119331	     62.85722020	     62.85722020	      0.54794096	    -12.43793493	     -1.30799925	     13.80016271	     -6.55319044	    -10.76388143	     19.76231058	     19.76231058	     12.64827571	     -8.69708192	     -0.34449131	    -12.22991472	      6.10863864	      4.04714192	      6.31979826	    -13.71854452	     -4.37275480	     65.69399057	     45.61453415	      0.00000000	      0.00000000	     15.65230228	    -15.26267755	      2.89547117	     58.90138289	     46.09098661	      0.00000000	      0.00000000
      7.10900000	     -4.82467792	     -5.42000851	     -3.75347960	      0.99974634	      0.93623756	      0.43698457	     36.02185269	     -6.13696454	     -4.79231060	     60.82317349	     60.82317349	      0.63260343	    -12.07042203	     -1.00696799	     13.10569300	     -6.64862517	    -10.93762053	     19.30566003	     19.30566003	     12.80233182	     -8.55274532	     -0.72654070	    -12.19033706	      6.28567034	      3.33367683	      6.65954716	    -13.10423453	     -4.72430610	     58.77625018	     45.84934813	      0.00000000	      0.00000000	     16.29443108	    -16.36596263	      3.21860263	     61.23411928	     46.16214483	      0.00000000	      0.00000000
